#Produced by polyHédronisme http://levskaya.github.com/polyhedronisme
group cdI
#vertices
v 0.48157066027596596 0.35016407817169287 0.7796518473199605
v -0.18434195224364727 0.5664828787522694 0.7795972630382557
v -0.5957992959647025 0.000031259740450626316 0.7796646005904287
v -0.18418665712429824 -0.5663802000040647 0.7797522027180991
v 0.4816689366430926 -0.3499850977960116 0.7797494322971273
v 0.7796006737851653 -0.5663617911733643 0.18411272801777523
v 0.9636435200125624 0.00006250348051139812 -0.1840994610700081
v 0.7794465822011635 0.5665039700032486 0.18395973760511483
v 0.29763165888806836 0.9165291419029007 -0.1842547786226161
v -0.298023826179733 0.9165163069935404 0.18386980833749697
v -0.7797395008488271 0.5664039674949544 -0.18424082661691424
v -0.963780171303123 -0.0000163066127505142 0.18397646003178833
v -0.7795981249886383 -0.5664564319705994 -0.1840983983736616
v -0.29778417395241774 -0.9164932684397183 0.1841098215579165
v 0.29787010758003635 -0.9164831159506367 -0.18401671466937944
v 0.5956661279048567 0.000012649286712966373 -0.7797902119690474
v 0.18405251682669835 0.5664227709053367 -0.7798809623904539
v 0.18419268915153972 -0.566440310980496 -0.7797404834143842
v -0.4818042804369193 0.3500353127205797 -0.7798769932342489
v -0.4817199233289532 -0.3501111839563446 -0.7797919196936726
v -0.09231123016473732 0.2832834404927933 0.9544241604100184
v -0.29803999534047537 0.0000565114685835669 0.9544572248930114
v -0.09223224624190667 -0.28314835603288957 0.9545028314959678
v 0.24069412096717688 -0.17495067620926977 0.9544999428789276
v 0.2406448672731483 0.17512365432671012 0.9544509633075469
v 0.7457197263303191 -0.17494013000580433 0.6423844750620202
v 0.8946871400864327 -0.28312834796620145 0.34456781341169573
v 0.9867067992153387 0.00008315656765878538 0.16046016385861933
v 0.8946087579312756 0.28330478976962076 0.34449011695933784
v 0.7456707036572211 0.17513471542592032 0.642335869656234
v 0.5456147373465898 0.7635332915237324 0.344405545356933
v 0.30470694137986176 0.9385451059608877 0.1602982356404371
v 0.006879533152387036 0.9385384689285005 0.34436027859055723
v 0.06372035461371926 0.7635224884503702 0.6422241209907064
v 0.3966768696954469 0.6553634740358769 0.6422519023748825
v -0.5576618373532393 0.7550708610249255 0.3443705104288796
v -0.7985198934875016 0.5800141772108341 0.1603153284318407
v -0.8905384647298572 0.29680468295005935 0.3444255267653768
v -0.7065493634238029 0.2968287232741756 0.6422683957986693
v -0.5008207848784858 0.5800534132617846 0.6422341227294893
v -0.8904618617974991 -0.2968162035258494 0.3445025415412083
v -0.7983712662618931 -0.5800371661453672 0.16046475857532624
v -0.5574639564336021 -0.7550548128672557 0.34456892014374574
v -0.5006651980232971 -0.5799992697398071 0.6423898085912702
v -0.7064700877651326 -0.2967926774967646 0.6423478130665562
v 0.007130984872715875 -0.9384684677452452 0.34461129360338294
v 0.3049577913325169 -0.9384631719229973 0.16054827601967142
v 0.5458232932347967 -0.7634019954695626 0.34461286188308204
v 0.39685896984883756 -0.655213520052607 0.6424329045121097
v 0.06392974329053024 -0.7634109424370406 0.6424327863160412
v 0.7063370811569893 0.2968361508944568 -0.6424715943959032
v 0.5005288459395437 0.5800403493329839 -0.6425187751457277
v 0.5573184169739834 0.7550945259221437 -0.344705381129242
v 0.7982255443203503 0.5800811684596471 -0.16059817461800696
v 0.890324440847686 0.2968613351388717 -0.3446274201924114
v 0.5575143668351423 -0.7550354518822016 -0.3445100989909175
v 0.5006757731276047 -0.5800147830396366 -0.6423720984131897
v 0.7064125858194735 -0.2967871833877317 -0.6423963583974277
v 0.8904026182364826 -0.2967625134383482 -0.34454978170188033
v 0.7983794311379915 -0.5799753035583637 -0.16044524216717349
v -0.06406808083903726 0.763450335316042 -0.642565800315512
v -0.3969950497962342 0.6552564775040703 -0.6425623123308551
v -0.5459642051872652 0.7634406761629786 -0.3447459195115393
v -0.3051065866524335 0.9384963318474729 -0.16069046655416702
v -0.007278509812106846 0.938502529724446 -0.34475301056416
v -0.7458580094097822 0.17499347434552617 -0.6425115182597266
v -0.745815715345334 -0.1750795165450636 -0.6424687944066413
v -0.8947547228637208 -0.2832520121242685 -0.34462173158610937
v -0.9868461736425994 -0.00003284938593734877 -0.16058465614654147
v -0.894824074430659 0.28317793046099277 -0.3446917444617079
v -0.39683527958004416 -0.6553162176934939 -0.6424013812958762
v -0.0638791821617187 -0.7634811670813645 -0.6423761523995559
v -0.007040357440759709 -0.9385033032089405 -0.34451438307682314
v -0.30486783251341276 -0.9385081598757741 -0.16045086443323875
v -0.5457744737213424 -0.7634889701285439 -0.3445549227963973
v 0.09216958365496827 -0.2832352357158168 -0.9545604368713427
v -0.24078693140719917 -0.17507105807953594 -0.9545866442543106
v -0.240828994450717 0.1750024477067986 -0.9546289939418017
v 0.09210083385570372 0.2831960480795839 -0.95462947511335
v 0.29790620971641635 -0.000009875100512588842 -0.9545859054417678
#normal vector defs 
vn 0.00004011846595909107 -0.00012162668808211954 -0.9999999917987287
vn 0.42541903174335355 0.30901764288557443 -0.8506037525287501
vn -0.16247251181903186 0.49993657119357954 -0.8506856691436747
vn 0.4254408414656164 -0.30911645203145444 -0.850556940772641
vn 0.26286338863040914 0.8090501613244939 -0.5256811537220534
vn -0.5257221756041556 -0.00016670332959120313 -0.8506563150227201
vn 0.7236445414486528 0.5258086102693244 -0.44706138616325447
vn -0.16241191475223643 -0.5001448978769681 -0.8505747768856947
vn 0.8507656153290781 0.000042820386112505785 -0.5255453034136538
vn -0.2764356594092823 0.8506089240962283 -0.4472670169538684
vn -0.6882194940130404 0.4998631881493104 -0.525823849966547
vn 0.7237156396220419 -0.5257444502085954 -0.4470217511948614
vn 0.2629381671710085 -0.809086605644349 -0.5255876566393624
vn 0.5877111518419672 0.8090708229539628 0.00007379149885645847
vn -0.8943848977981181 -0.00016419910504571157 -0.44729814176822136
vn -0.6881127469416111 -0.5001139261207267 -0.5257251262747317
vn 0.9510152520529153 0.309143917695673 0.00016886237320680046
vn -0.00005305148973958867 0.9999999972927277 -0.00005099101731262436
vn -0.27632949351248665 -0.8507088703107354 -0.44714251530106697
vn 0.9510940508873991 -0.3089013871162181 0.00019850509824692817
vn -0.5878465738749266 0.8089724235911628 -0.00015314225607807535
vn 0.5878453988636871 -0.8089732777954202 0.00015115464511021657
vn -0.9510937697770071 0.30890225599029786 -0.00019322387506510102
vn 0.2763143410207709 0.8507205228699638 0.4471297092725025
vn 0.000047732413856572896 -0.9999999976287186 0.000049640500905408385
vn -0.9510207687134546 -0.3091269508379782 -0.00016044090471286504
vn 0.6880926615493791 0.5001460243586392 0.5257208797833115
vn 0.8943817656074188 0.00018573553261993017 0.4473043961904111
vn -0.5877278668574878 -0.8090586814131022 -0.00006744804910032925
vn -0.2629352606163216 0.8090941143593668 0.525577551683535
vn -0.7237138149080364 0.5257463223822777 0.44702250347467554
vn 0.6882207394845169 -0.4998601468854532 0.5258251109437793
vn 0.2764344141468833 -0.8506103871595707 0.4472650041435332
vn -0.850762304202292 -0.000042088476874369306 0.5255506635681918
vn 0.16240942024031693 0.5001733177080837 0.8505585414714807
vn -0.7236450473283264 -0.5258020485865477 0.44706828469415516
vn 0.5257215705684708 0.00019235516931663969 0.8506566835324985
vn -0.26286498482225057 -0.8090483458132777 0.5256831497120648
vn -0.4254355370344525 0.30912759026035885 0.8505555459627728
vn 0.16247597648895803 -0.4999338058442621 0.8506866325727888
vn -0.4254128841424017 -0.3090176803261059 0.8506068135463741
vn -0.000034418619220042166 0.0001391668381936466 0.999999989723975
#face defs 
f 76//1 77//1 78//1 79//1 80//1 
f 80//2 79//2 17//2 52//2 51//2 16//2 
f 79//3 78//3 19//3 62//3 61//3 17//3 
f 58//4 57//4 18//4 76//4 80//4 16//4 
f 53//5 52//5 17//5 61//5 65//5 9//5 
f 78//6 77//6 20//6 67//6 66//6 19//6 
f 51//7 52//7 53//7 54//7 55//7 
f 72//8 71//8 20//8 77//8 76//8 18//8 
f 59//9 58//9 16//9 51//9 55//9 7//9 
f 61//10 62//10 63//10 64//10 65//10 
f 63//11 62//11 19//11 66//11 70//11 11//11 
f 56//12 57//12 58//12 59//12 60//12 
f 73//13 72//13 18//13 57//13 56//13 15//13 
f 54//14 53//14 9//14 32//14 31//14 8//14 
f 66//15 67//15 68//15 69//15 70//15 
f 68//16 67//16 20//16 71//16 75//16 13//16 
f 55//17 54//17 8//17 29//17 28//17 7//17 
f 65//18 64//18 10//18 33//18 32//18 9//18 
f 71//19 72//19 73//19 74//19 75//19 
f 60//20 59//20 7//20 28//20 27//20 6//20 
f 64//21 63//21 11//21 37//21 36//21 10//21 
f 48//22 47//22 15//22 56//22 60//22 6//22 
f 70//23 69//23 12//23 38//23 37//23 11//23 
f 31//24 32//24 33//24 34//24 35//24 
f 74//25 73//25 15//25 47//25 46//25 14//25 
f 69//26 68//26 13//26 42//26 41//26 12//26 
f 30//27 29//27 8//27 31//27 35//27 1//27 
f 26//28 27//28 28//28 29//28 30//28 
f 75//29 74//29 14//29 43//29 42//29 13//29 
f 34//30 33//30 10//30 36//30 40//30 2//30 
f 36//31 37//31 38//31 39//31 40//31 
f 49//32 48//32 6//32 27//32 26//32 5//32 
f 46//33 47//33 48//33 49//33 50//33 
f 39//34 38//34 12//34 41//34 45//34 3//34 
f 35//35 34//35 2//35 21//35 25//35 1//35 
f 41//36 42//36 43//36 44//36 45//36 
f 25//37 24//37 5//37 26//37 30//37 1//37 
f 44//38 43//38 14//38 46//38 50//38 4//38 
f 40//39 39//39 3//39 22//39 21//39 2//39 
f 50//40 49//40 5//40 24//40 23//40 4//40 
f 45//41 44//41 4//41 23//41 22//41 3//41 
f 21//42 22//42 23//42 24//42 25//42 
